# xmcd CD database file
#
# Track frame offsets:
#	150
#	18667
#	28802
#	38220
#	57728
#	66738
#	76881
#	85181
#	96585
#	115007
#	129331
#	141742
#	154168
#	165798
#	174284
#	193612
#	211930
#	227002
#	241418
#	255841
#
# Disc length: 3586 seconds
#
# Revision: 1
# Processed by: cddbd v1.5.2PL0 Copyright (c) Steve Scherf et al.
# Submitted via: CDex 1.70beta3
#
DISCID=130e0014
DTITLE=kids songs - キッズソング ヒトパラダイス Disc1
DYEAR=1900
DGENRE=Anime
TTITLE0=AKI／ひまわりキッズ/夢をかなえてドラえもん
TTITLE1=井上かおり／長谷川友二/まんまるスマイル
TTITLE2=たにぞう／スマイルキッズ/バスにのって
TTITLE3=加納幸乃/となりのトトロ
TTITLE4=タンポポ児童合唱団/ピクニックマーチ
TTITLE5=タンポポ児童合唱団/ぐるぐるどっか～ん!
TTITLE6=渡辺かおり／長谷川友二/はじめてはじめまして
TTITLE7=井上かおり／タンポポ児童合唱団/味楽る!ミミカ ナンバーワン
TTITLE8=井上かおり/プリキュア5、フル・スロットルGO GO!
TTITLE9=ひまわりキッズ/アララの呪文
TTITLE10=中西海羽／月島晴海/崖の上のポニョ
TTITLE11=林原めぐみ/さんぽ
TTITLE12=原田真純／横山晴子/おしえて
TTITLE13=中川ひろたか／たにぞう/だじゃれだゾ～
TTITLE14=池田鴻/およげ!たいやきくん
TTITLE15=坂田めぐ美／坂田おさむ/世界中の誰よりきっと
TTITLE16=堀井英明/ヤッターマンの歌
TTITLE17=モヨモヨ/アイーダアイダ
TTITLE18=神谷明/キン肉マン Go Fight!
TTITLE19=神谷明／TOY BOX/愛をとりもどせ!!
EXTD=
EXTT0=
EXTT1=
EXTT2=
EXTT3=
EXTT4=
EXTT5=
EXTT6=
EXTT7=
EXTT8=
EXTT9=
EXTT10=
EXTT11=
EXTT12=
EXTT13=
EXTT14=
EXTT15=
EXTT16=
EXTT17=
EXTT18=
EXTT19=
PLAYORDER=
